PathFileType	4	(X/Y/Z)	./resultDataOpenSim/trcMotMarkerGrf/sub06/qtm-12-05.trc
DataRate	CameraRate	NumFrames	NumMarkers	Units	OrigDataRate	OrigDataStartFrame	OrigNumFrames
250.000000	250.000000	14	24	m	250.000000	130	517
Frame#	Time	L.Toe.Tip			R.Toe.Tip			L.Ankle.Lat			R.Ankle.Lat			L.Ankle.Med			R.Ankle.Med			L.Heel			R.Heel			L.Knee.Lat			R.Knee.Lat			L.Knee.Med			R.Knee.Med			L.Thigh.Upper			R.Thigh.Upper			L.ASIS			R.ASIS			V.Sacral			L.Acromium			R.Acromium			C7			L.Elbow			R.Elbow			L.Wrist.Lat			R.Wrist.Lat
		X1	Y1	Z1	X2	Y2	Z2	X3	Y3	Z3	X4	Y4	Z4	X5	Y5	Z5	X6	Y6	Z6	X7	Y7	Z7	X8	Y8	Z8	X9	Y9	Z9	X10	Y10	Z10	X11	Y11	Z11	X12	Y12	Z12	X13	Y13	Z13	X14	Y14	Z14	X15	Y15	Z15	X16	Y16	Z16	X17	Y17	Z17	X18	Y18	Z18	X19	Y19	Z19	X20	Y20	Z20	X21	Y21	Z21	X22	Y22	Z22	X23	Y23	Z23	X24	Y24	Z24

130	0.516	-0.33107788	0.076620541	-0.10837258	-0.72842969	0.035507882	0.057117006	-0.45710703	0.09263954	-0.11401297	-0.86265136	0.072351639	0.069961978	-0.44569563	0.11132982	-0.029613427	-0.83326358	0.093671329	-0.012434779	-0.51674728	0.053580099	-0.055448245	-0.91339397	0.055195814	0.002712935	-0.44658581	0.4714966	-0.13381039	-0.74004354	0.44325569	0.1116011	-0.45612017	0.46995672	-0.011658337	-0.75773177	0.44243708	-0.019934191	-0.62744949	0.82333029	-0.16922376	-0.68182762	0.80668959	0.17258665	-0.56665865	0.86748125	-0.11190724	-0.59903494	0.86605802	0.14338087	-0.75582827	0.94149105	-0.002576402	-0.62121831	1.3498125	-0.17337197	-0.60350001	1.3338773	0.18635613	-0.69016752	1.3784583	0.010164463	-0.72741141	1.0518562	-0.22850599	-0.63206452	1.0191457	0.28122637	-0.61068912	0.8370936	-0.2654764	-0.40450267	0.91054822	0.26795573
131	0.52	-0.31105827	0.07963667	-0.10747819	-0.72837617	0.035483259	0.057157198	-0.43771462	0.09201841	-0.11409414	-0.86242039	0.072823172	0.069752605	-0.42736956	0.11088701	-0.02966482	-0.83277623	0.093925419	-0.012659242	-0.49655964	0.051181559	-0.055801218	-0.91310818	0.055855747	0.0023940368	-0.43937056	0.47041121	-0.13297187	-0.7373248	0.44294782	0.11149614	-0.44921815	0.46856148	-0.010592599	-0.75453617	0.44210528	-0.020062144	-0.62000456	0.82185692	-0.16903487	-0.67663407	0.80568532	0.17268463	-0.55946007	0.86594218	-0.11175865	-0.60203479	0.86762972	0.14896465	-0.7501058	0.94067371	-0.0034656424	-0.61525896	1.3484783	-0.17343702	-0.59737133	1.3326223	0.18636818	-0.68379631	1.3771133	0.010062966	-0.72254757	1.0509138	-0.22814808	-0.62366114	1.017867	0.2820348	-0.6077179	0.83547009	-0.2661485	-0.39459369	0.91252058	0.26696728
132	0.524	-0.29134633	0.082836652	-0.10662915	-0.72832426	0.035432369	0.057173187	-0.41850536	0.091722339	-0.11423062	-0.86217313	0.073291751	0.069556945	-0.40925222	0.11073192	-0.029780834	-0.83227483	0.094177052	-0.012866924	-0.47669295	0.049265708	-0.055969182	-0.91284574	0.056533226	0.0021406284	-0.43219012	0.4691779	-0.13207509	-0.73442451	0.44259484	0.11139986	-0.44227128	0.46699773	-0.0094243442	-0.75127296	0.44170013	-0.020207128	-0.61268136	0.82024094	-0.16890535	-0.67173477	0.80477783	0.1733247	-0.55233059	0.8643075	-0.11163957	-0.59967408	0.8673326	0.15120025	-0.74385998	0.93947691	-0.0043497875	-0.60925208	1.3470732	-0.17351842	-0.59122277	1.3312977	0.18635574	-0.67746495	1.3757189	0.009965167	-0.71802588	1.0499406	-0.22840244	-0.61520969	1.0165301	0.28279775	-0.60449564	0.83383757	-0.26673764	-0.38476223	0.91442073	0.26597871
133	0.528	-0.27198612	0.086233545	-0.10583855	-0.72828136	0.035343401	0.057161538	-0.39951648	0.091754628	-0.11438819	-0.86190443	0.073758244	0.069383317	-0.39135514	0.11087841	-0.029937197	-0.8317769	0.094419847	-0.013055404	-0.45717812	0.047800948	-0.056007651	-0.91260573	0.05722275	0.0019456193	-0.42501169	0.4678014	-0.1311243	-0.73133953	0.44218446	0.11131302	-0.43530369	0.46525675	-0.008178047	-0.74791953	0.44121669	-0.020384301	-0.60546684	0.81848749	-0.16883971	-0.66722924	0.80395986	0.17428774	-0.54524545	0.86259055	-0.11155016	-0.59070246	0.864874	0.14962538	-0.73677516	0.93764448	-0.0050787232	-0.60320236	1.3456021	-0.17360814	-0.58504513	1.3299047	0.18631827	-0.67134309	1.3743268	0.0099275895	-0.71369693	1.0489391	-0.22904056	-0.60671125	1.0151383	0.28351628	-0.60108003	0.8321648	-0.26726121	-0.37499339	0.91625814	0.26497937
134	0.532	-0.25301375	0.089837155	-0.10511094	-0.7282455	0.035227837	0.057125203	-0.38078109	0.092116115	-0.11456239	-0.86160509	0.07422752	0.06924489	-0.37369071	0.11131667	-0.03014203	-0.83131264	0.094650713	-0.013214127	-0.43795379	0.046697901	-0.056128368	-0.91238838	0.057934378	0.0018144014	-0.4177987	0.46630182	-0.13013465	-0.72808388	0.44171485	0.11123057	-0.4283647	0.4633523	-0.0069175555	-0.7444724	0.44065829	-0.020582855	-0.59826413	0.81662344	-0.16880974	-0.6630017	0.80318136	0.17510741	-0.53815923	0.86081542	-0.11148579	-0.57654946	0.86071046	0.14525974	-0.72890973	0.93511967	-0.0056918785	-0.59711574	1.3440709	-0.17369999	-0.5788346	1.3284465	0.18626118	-0.66536661	1.3729244	0.0099323934	-0.7091718	1.0478705	-0.22950756	-0.59817363	1.0136987	0.28419307	-0.59757298	0.83039826	-0.26775307	-0.36525671	0.91803504	0.26394036
135	0.536	-0.23447688	0.093630202	-0.10444939	-0.72820298	0.035119847	0.057073511	-0.36235367	0.092795039	-0.11478441	-0.86126296	0.074709562	0.069147226	-0.35630334	0.11201111	-0.030403396	-0.83088735	0.094872966	-0.013342842	-0.41897457	0.045882322	-0.056488276	-0.91219284	0.058680619	0.0017470137	-0.41052367	0.46470571	-0.12911298	-0.72470504	0.44118255	0.11113875	-0.42144382	0.46132006	-0.0056706976	-0.74094125	0.44003742	-0.020782611	-0.5909838	0.81467591	-0.16877562	-0.65864968	0.80231333	0.17544633	-0.53104202	0.85900106	-0.11144057	-0.56101629	0.85600079	0.14025965	-0.72096005	0.93223625	-0.0061437367	-0.59099389	1.342486	-0.17379798	-0.57259391	1.3269279	0.1861916	-0.65938708	1.3714762	0.0099307502	-0.7041941	1.046707	-0.2294345	-0.58960043	1.0122222	0.28482955	-0.59397467	0.82854284	-0.26822575	-0.35554472	0.91974481	0.26283345
136	0.54	-0.2164204	0.097575446	-0.10384871	-0.72814258	0.035043469	0.057014369	-0.34434554	0.09375281	-0.11508065	-0.86086099	0.075214082	0.069086854	-0.33927662	0.11290837	-0.030722675	-0.83046635	0.095095973	-0.013455542	-0.40025985	0.045313753	-0.057116673	-0.91202107	0.059465484	0.0017436379	-0.40317895	0.46303458	-0.12805747	-0.72125181	0.44057893	0.11102594	-0.41446024	0.45920258	-0.0044061933	-0.7373342	0.43936493	-0.020971182	-0.58363373	0.81265364	-0.16873937	-0.65375144	0.80119515	0.17532597	-0.52389057	0.85714988	-0.11141554	-0.54810973	0.85203748	0.13672115	-0.71388397	0.92964616	-0.0063367139	-0.58483005	1.340853	-0.17391154	-0.56632888	1.3253526	0.18610877	-0.65333485	1.3699748	0.0098919938	-0.69882395	1.0454603	-0.22890269	-0.58100054	1.0107169	0.28543411	-0.59029211	0.82669488	-0.26873468	-0.34591141	0.92137733	0.26167157
137	0.544	-0.19888241	0.10162485	-0.10329798	-0.72806545	0.034994822	0.056948519	-0.32687497	0.094934731	-0.11543115	-0.86037744	0.075745473	0.069057477	-0.32271061	0.11394729	-0.031094165	-0.83001585	0.095328505	-0.013559975	-0.38184839	0.044941047	-0.058034459	-0.91188236	0.060283577	0.0018191163	-0.39577918	0.46130871	-0.12696637	-0.71770784	0.4399031	0.11090161	-0.40734055	0.4570409	-0.0030881201	-0.73365015	0.43864376	-0.021146962	-0.57623629	0.81056262	-0.16873807	-0.64820434	0.79972622	0.17503787	-0.51669923	0.85525574	-0.11141429	-0.53909031	0.84922231	0.13514617	-0.70806921	0.92786524	-0.0062448397	-0.57860953	1.3391752	-0.17404531	-0.5600408	1.3237239	0.18600347	-0.64723642	1.3684504	0.0098078606	-0.69325238	1.0441567	-0.2281891	-0.57240088	1.0091799	0.28602078	-0.58658963	0.82495146	-0.26935182	-0.33644327	0.92292545	0.26052732
138	0.548	-0.18189829	0.10572219	-0.10277898	-0.72797959	0.034958021	0.056872141	-0.3099655	0.096301576	-0.11576296	-0.85980815	0.076299368	0.069056806	-0.30667265	0.11508168	-0.031477163	-0.82953762	0.095573989	-0.01364952	-0.3637716	0.044697884	-0.059275941	-0.91178111	0.061123041	0.0019863604	-0.38834993	0.45955862	-0.12584668	-0.71400413	0.43916928	0.1107931	-0.40007564	0.45487626	-0.0017203418	-0.72988351	0.43787361	-0.021309745	-0.56871792	0.80842255	-0.16879059	-0.64225298	0.79792544	0.17491734	-0.50941856	0.85332045	-0.11143164	-0.53250537	0.8471114	0.13471502	-0.70291606	0.92674296	-0.0061056275	-0.57232132	1.3374555	-0.17419668	-0.55372276	1.3220457	0.18586848	-0.64114843	1.3669415	0.0096782907	-0.68760876	1.0428103	-0.22748764	-0.56382568	1.0076013	0.28658692	-0.58285212	0.82327994	-0.27003392	-0.32718183	0.92438275	0.25948384
139	0.552	-0.16550175	0.10981317	-0.10226953	-0.72789295	0.034921877	0.056783105	-0.29355821	0.097829362	-0.11598997	-0.85920866	0.076864306	0.06908875	-0.29117521	0.11628667	-0.031776683	-0.82905225	0.09583474	-0.013718663	-0.34609333	0.044542334	-0.060752031	-0.91168855	0.06198147	0.00221545	-0.38091532	0.45782725	-0.12471992	-0.71010195	0.4383974	0.11071965	-0.39271118	0.45275257	-0.00033844872	-0.72603056	0.43706107	-0.021451849	-0.56098541	0.80625534	-0.16888456	-0.63613383	0.79602998	0.17513057	-0.50200776	0.85135624	-0.11145809	-0.52650918	0.84525958	0.13461221	-0.69724667	0.92549612	-0.0066275155	-0.56597285	1.3356991	-0.1743608	-0.54737611	1.3203221	0.18570664	-0.6350902	1.3654518	0.009509336	-0.68193408	1.0414244	-0.22686241	-0.55527568	1.005981	0.28710993	-0.57901027	0.82154404	-0.27066137	-0.31807917	0.92574056	0.2585513
140	0.556	-0.14972128	0.11385911	-0.10174986	-0.72781126	0.034882869	0.05668532	-0.27762928	0.099474285	-0.11605648	-0.85868185	0.077435312	0.069157663	-0.27620482	0.11753271	-0.031886515	-0.82856887	0.096119038	-0.013770315	-0.32895451	0.044482151	-0.062184798	-0.91154747	0.062881241	0.0024432395	-0.37347647	0.45616119	-0.1236187	-0.70603741	0.43759358	0.11067566	-0.38531266	0.45071172	0.0010183023	-0.72209196	0.43622457	-0.02156217	-0.5530677	0.80407319	-0.16900162	-0.62954736	0.7944453	0.17562923	-0.49452566	0.84937609	-0.11149081	-0.52027383	0.84353186	0.1344868	-0.69016233	0.9234333	-0.0086263306	-0.55958611	1.3339118	-0.17453705	-0.54102296	1.3185629	0.18553221	-0.6290252	1.3639408	0.0093163633	-0.67622208	1.0400015	-0.22630445	-0.54674664	1.0043343	0.2875784	-0.57508775	0.81965442	-0.27119997	-0.30903585	0.92699744	0.25765679
141	0.56	-0.13457393	0.11782456	-0.1011987	-0.72773581	0.034842624	0.056588097	-0.26223182	0.10115636	-0.11594002	-0.85827339	0.078027508	0.069260608	-0.26172927	0.11877822	-0.031748562	-0.82808017	0.096439331	-0.013805696	-0.31251297	0.044555877	-0.063255404	-0.91134211	0.063857108	0.002669547	-0.36596231	0.45460451	-0.12256849	-0.70188339	0.43674524	0.11064062	-0.37793895	0.44878232	0.0023212825	-0.7180751	0.43538561	-0.021633766	-0.54511429	0.80188269	-0.16913409	-0.62182925	0.79336388	0.17623286	-0.48707568	0.84738756	-0.11153103	-0.51382785	0.84191	0.13424638	-0.68175663	0.92062928	-0.012029101	-0.55317772	1.3320988	-0.17472941	-0.53468437	1.3167819	0.18536345	-0.62290368	1.3623676	0.0091151288	-0.67045191	1.0385435	-0.22578102	-0.5382513	1.0026788	0.28801108	-0.57116503	0.81763109	-0.2717139	-0.29999133	0.9281665	0.25672854
142	0.564	-0.12006343	0.12164048	-0.10059465	-0.72766324	0.034803749	0.056500774	-0.24743705	0.10278223	-0.11563817	-0.85790954	0.078668184	0.069389367	-0.24768997	0.11999565	-0.031364486	-0.82757674	0.096803047	-0.013815787	-0.29683194	0.044778033	-0.063791844	-0.91114249	0.064935441	0.0030067584	-0.35822427	0.45319039	-0.12157239	-0.69767992	0.43584515	0.11060351	-0.37062842	0.44697385	0.0035494165	-0.71398759	0.43455644	-0.021663957	-0.53725213	0.79969433	-0.16927899	-0.61308461	0.79241141	0.17643174	-0.47967955	0.8453946	-0.11157555	-0.50739946	0.84033896	0.13394966	-0.67314541	0.91790072	-0.015285623	-0.54675079	1.3302654	-0.17494038	-0.52835853	1.3149847	0.18520734	-0.61671015	1.3607285	0.0089109386	-0.66460321	1.037046	-0.22525646	-0.52980505	1.0010208	0.28843196	-0.56724465	0.81555468	-0.27226006	-0.29096784	0.92926274	0.25575793
143	0.568	-0.10618335	0.12519576	-0.09992678	-0.72758937	0.034767013	0.056427688	-0.23328857	0.1042744	-0.11517033	-0.857484	0.079373976	0.069540781	-0.23406698	0.12116728	-0.030784577	-0.82705458	0.097209881	-0.013785016	-0.28187889	0.045106089	-0.063794893	-0.91100934	0.066126923	0.0035278977	-0.35018113	0.45191697	-0.12063228	-0.69340735	0.43490995	0.11057774	-0.36339422	0.4452828	0.0046822715	-0.70981885	0.43373685	-0.021655434	-0.52948905	0.7975249	-0.16942472	-0.60444889	0.7908711	0.17530018	-0.4722811	0.84340084	-0.11161687	-0.50102476	0.83869475	0.13377317	-0.66567795	0.91622047	-0.016220369	-0.54030175	1.3284151	-0.17516924	-0.52202963	1.3131664	0.18505463	-0.6104598	1.3590455	0.0086995583	-0.65866474	1.0354988	-0.2247067	-0.52140214	0.99936059	0.28883875	-0.56321159	0.81351194	-0.27282643	-0.28202084	0.93028685	0.25477734
